<svg width="64" height="40" viewBox="0 0 64 40" fill="none" xmlns="http://www.w3.org/2000/svg">
    <g clip-path="url(#clip0_3421_2585)">
        <path d="M32 39.7008C49.6731 39.7008 64 36.59 64 32.7527C64 28.9154 49.6731 25.8047 32 25.8047C14.3269 25.8047 0 28.9154 0 32.7527C0 36.59 14.3269 39.7008 32 39.7008Z"
              fill="#929292" fill-opacity="0.2"/>
        <path d="M55 13.6653L44.854 2.24866C44.367 1.47048 43.656 1 42.907 1H21.093C20.344 1 19.633 1.47048 19.146 2.24767L9 13.6663V22.8367H55V13.6653Z"
              stroke="#757575"/>
        <path d="M41.613 16.8155C41.613 15.2224 42.607 13.9072 43.84 13.9062H55V31.9086C55 34.0159 53.68 35.7429 52.05 35.7429H11.95C10.32 35.7429 9 34.0149 9 31.9086V13.9062H20.16C21.393 13.9062 22.387 15.2194 22.387 16.8125V16.8344C22.387 18.4274 23.392 19.7138 24.624 19.7138H39.376C40.608 19.7138 41.613 18.4155 41.613 16.8224V16.8155Z"
              fill="white" stroke="#757575"/>
    </g>
    <defs>
        <clipPath id="clip0_3421_2585">
            <rect width="64" height="40" fill="white"/>
        </clipPath>
    </defs>
</svg>
