<svg width="1em" height="1em" viewBox="0 0 16 16" fill="none" xmlns="http://www.w3.org/2000/svg">
  <path
    d="M8.5 7C9.09334 7 9.67336 6.82405 10.1667 6.49441C10.6601 6.16476 11.0446 5.69623 11.2716 5.14805C11.4987 4.59987 11.5581 3.99667 11.4424 3.41473C11.3266 2.83279 11.0409 2.29824 10.6213 1.87868C10.2018 1.45912 9.66721 1.1734 9.08527 1.05765C8.50333 0.94189 7.90013 1.0013 7.35195 1.22836C6.80377 1.45543 6.33523 1.83994 6.00559 2.33329C5.67595 2.82664 5.5 3.40666 5.5 4C5.5 4.79565 5.81607 5.55871 6.37868 6.12132C6.94129 6.68393 7.70435 7 8.5 7V7ZM8.5 2C8.89556 2 9.28224 2.1173 9.61114 2.33706C9.94004 2.55682 10.1964 2.86918 10.3478 3.23463C10.4991 3.60009 10.5387 4.00222 10.4616 4.39018C10.3844 4.77814 10.1939 5.13451 9.91421 5.41421C9.63451 5.69392 9.27814 5.8844 8.89018 5.96157C8.50222 6.03874 8.10008 5.99913 7.73463 5.84776C7.36918 5.69638 7.05682 5.44004 6.83706 5.11114C6.6173 4.78224 6.5 4.39556 6.5 4C6.5 3.46957 6.71071 2.96086 7.08579 2.58579C7.46086 2.21071 7.96957 2 8.5 2V2Z"
    fill="currentColor" stroke="currentColor" stroke-width="0.2" />
  <path
    d="M9.44589 8.03381H7.55412C6.34661 8.0349 5.18885 8.53863 4.33502 9.43442C3.48118 10.3302 3.00104 11.5448 3 12.8117V14.4848C3 14.6304 3.05513 14.77 3.15327 14.873C3.25141 14.976 3.38452 15.0338 3.52331 15.0338H13.4767C13.6155 15.0338 13.7486 14.976 13.8467 14.873C13.9449 14.77 14 14.6304 14 14.4848V12.8117C13.9986 11.5449 13.5184 10.3305 12.6646 9.43482C11.8108 8.53911 10.6533 8.03527 9.44589 8.03381V8.03381ZM12.9534 13.9358H4.04662V12.8117C4.04766 11.836 4.41753 10.9007 5.07509 10.2108C5.73265 9.52099 6.62419 9.13294 7.55412 9.13185H9.44589C10.3758 9.13294 11.2674 9.52099 11.9249 10.2108C12.5825 10.9007 12.9523 11.836 12.9534 12.8117V13.9358Z"
    fill="currentColor" stroke="currentColor" stroke-width="0.2" />
</svg>