<svg width="1em" height="1em" viewBox="0 0 16 16" fill="none" xmlns="http://www.w3.org/2000/svg">
  <path
    d="M10.4194 13.6752C10.3496 14.9711 9.29306 16 8 16C6.70694 16 5.65045 14.9711 5.5806 13.6752H1.80838C1.36147 13.6752 1 13.3089 1 12.8555V12.0342C1 11.1287 1.72387 10.3932 2.61595 10.3932C2.6149 10.3932 2.61538 7.11091 2.61538 7.11091C2.61538 4.79907 4.0385 2.77216 6.11538 1.98531V1.91323C6.11538 0.856901 6.96035 0 8 0C9.04076 0 9.88462 0.856385 9.88462 1.91323V1.98535C11.9615 2.77231 13.3846 4.79955 13.3846 7.11091V10.3927C14.2748 10.3932 15 11.1284 15 12.0342V12.8555C15 13.3071 14.6373 13.6752 14.1916 13.6752H10.4194ZM9.33951 13.6752H6.66049C6.72803 14.3663 7.30197 14.906 8 14.906C8.69803 14.906 9.27197 14.3663 9.33951 13.6752ZM13.9231 12.5812V12.0342C13.9231 11.7331 13.6805 11.4872 13.3841 11.4872C12.789 11.4872 12.3077 10.9985 12.3077 10.3927V7.11091C12.3077 5.14845 11.025 3.4417 9.19691 2.90596L8.80769 2.7919V1.91323C8.80769 1.46084 8.44624 1.09402 8 1.09402C7.55471 1.09402 7.19231 1.46153 7.19231 1.91323V2.79189L6.80307 2.90594C4.97487 3.44162 3.69231 5.14797 3.69231 7.11091V10.3927C3.69231 10.9967 3.20982 11.4872 2.61595 11.4872C2.3187 11.4872 2.07692 11.7329 2.07692 12.0342V12.5812H13.9231Z"
    fill="currentColor" />
</svg>