<svg width="1em" height="1em" viewBox="0 0 16 16" fill="none" xmlns="http://www.w3.org/2000/svg">
  <path
    d="M4.3355 3.78581C4.11794 3.5872 3.99747 3.32113 4.00004 3.04489C4.00261 2.76865 4.12802 2.50436 4.34925 2.30892C4.57048 2.11349 4.86983 2.00258 5.18283 2.00005C5.49583 1.99748 5.79744 2.10358 6.02268 2.2954L11.6509 7.26111C11.8744 7.45865 12 7.72642 12 8.00561C12 8.28481 11.8744 8.55259 11.6509 8.75012L6.02428 13.7172C5.79797 13.9033 5.49867 14.0047 5.1894 13.9998C4.88014 13.995 4.58506 13.8845 4.36634 13.6914C4.14763 13.4984 4.02234 13.238 4.01688 12.965C4.01143 12.6921 4.12623 12.4279 4.33709 12.2282L9.11851 8.00561L4.3355 3.78441V3.78581Z"
    fill="currentColor" />
</svg>