<svg xmlns="http://www.w3.org/2000/svg" width="1em" height="1em" viewBox="0 0 16 16" fill="none">
  <path
    d="M1.17071 14H14.8292C15.4731 14 16 13.4394 16 12.7543V7.12799C16 7.02416 15.9805 6.92032 15.9415 6.83734L14.1269 2.97577C13.8343 2.37377 13.2683 2 12.6244 2H3.37569C2.73179 2 2.16598 2.37363 1.87322 2.97577L0.0585261 6.83734C0.0195993 6.92047 0 7.02416 0 7.12799V12.7543C0 13.4394 0.526862 13.9999 1.1708 13.9999L1.17071 14ZM2.92673 3.53639C3.00472 3.34957 3.18043 3.24574 3.37547 3.24574H12.6242C12.8194 3.24574 12.995 3.34958 13.073 3.53639L14.4584 6.50516H11.1804C10.9073 6.50516 10.6536 6.71283 10.6147 7.00346C10.5951 7.1073 10.1463 9.32867 7.99992 9.32867C5.87313 9.32867 5.40481 7.10716 5.40481 7.00346C5.34628 6.71281 5.11218 6.50516 4.83902 6.50516H1.54144L2.92673 3.53639ZM1.17071 7.7509H4.3707C4.76091 8.93436 5.85359 10.5744 7.99996 10.5744C10.1463 10.5744 11.239 8.93436 11.6292 7.7509H14.8292V12.7543H1.17071V7.7509Z"
    fill="currentColor" />
</svg>