<svg width="16" height="16" viewBox="0 0 16 16" fill="none" xmlns="http://www.w3.org/2000/svg">
  <path
    d="M8.31182 15.671C8.42057 15.5613 8.48138 15.413 8.48092 15.2586L8.48298 11.0243L12.4363 11.0222C12.5904 11.0218 12.738 10.9603 12.847 10.8514C12.956 10.7424 13.0174 10.5948 13.0178 10.4407L13.0199 8.58671C13.0167 8.04952 12.8018 7.53525 12.422 7.15539C12.0421 6.77553 11.5279 6.5607 10.9907 6.55748H10.9577V2.48797L12.0238 2.48591C12.1703 2.47458 12.3071 2.40839 12.4069 2.30058C12.5067 2.19277 12.5621 2.05127 12.5621 1.90436C12.5621 1.75745 12.5067 1.61595 12.4069 1.50814C12.3071 1.40033 12.1703 1.33414 12.0238 1.32281L3.77491 1.32281C3.62844 1.33414 3.49164 1.40033 3.39185 1.50814C3.29205 1.61595 3.23662 1.75745 3.23662 1.90436C3.23662 2.05127 3.29205 2.19277 3.39185 2.30058C3.49164 2.40839 3.62844 2.47458 3.77491 2.48591L4.84108 2.48797L4.84108 6.55748L4.80809 6.55748C4.2709 6.5607 3.75662 6.77553 3.37676 7.15539C2.9969 7.53525 2.78207 8.04952 2.77886 8.58671L2.78092 10.4407C2.78138 10.5948 2.84279 10.7424 2.95176 10.8514C3.06072 10.9603 3.20837 11.0218 3.36247 11.0222L7.31576 11.0243L7.31782 15.2586C7.31816 15.3736 7.3525 15.4859 7.4165 15.5815C7.48051 15.677 7.57133 15.7515 7.67756 15.7956C7.78379 15.8397 7.90067 15.8514 8.01352 15.8292C8.12638 15.807 8.23016 15.752 8.31182 15.671ZM6.00831 2.48797L9.79044 2.48797L9.79044 6.55748L6.00831 6.55748L6.00831 2.48797ZM3.94608 8.58671C3.94941 8.35913 4.0413 8.14181 4.20224 7.98087C4.36319 7.81993 4.58051 7.72804 4.80809 7.7247L10.9948 7.7247C11.2224 7.72804 11.4397 7.81993 11.6006 7.98087C11.7616 8.14181 11.8535 8.35913 11.8568 8.58671L11.8527 9.85705H3.94608L3.94608 8.58671Z"
    fill="currentColor" />
</svg>