<svg width="1em" height="1em" viewBox="0 0 16 16" fill="none" xmlns="http://www.w3.org/2000/svg">
  <path
    d="M14.8076 13.8787L11.526 10.5969C12.3355 9.58537 12.823 8.30501 12.823 6.91175C12.823 3.65181 10.1709 1 6.91149 1C3.65202 1 1 3.65181 1 6.91175C1 10.1717 3.65202 12.8235 6.91149 12.8235C8.30535 12.8235 9.58565 12.336 10.5972 11.5258L13.8788 14.8075C14.007 14.9358 14.1751 15 14.3431 15C14.5112 15 14.6792 14.9358 14.8075 14.8075C15.0641 14.551 15.0641 14.1353 14.8076 13.8787ZM2.31366 6.91175C2.31366 4.37666 4.37618 2.31372 6.91149 2.31372C9.44679 2.31372 11.5093 4.37666 11.5093 6.91175C11.5093 9.44683 9.44679 11.5098 6.91149 11.5098C4.37618 11.5098 2.31366 9.44683 2.31366 6.91175Z"
    fill="currentColor" />
</svg>