<svg xmlns="http://www.w3.org/2000/svg" width="1em" height="1em" viewBox="0 0 16 16" fill="none">
  <path
    d="M6.81778 6.26791C6.51821 5.86475 6.13526 5.5309 5.69503 5.28909C5.25479 5.04728 4.76761 4.9032 4.26667 4.86667H1"
    stroke="#444444" stroke-width="1.2" stroke-linecap="round" stroke-linejoin="round" />
  <path d="M15 4.86667H11.7333C9.4 4.86667 8 8.13333 8 8.13333C8 8.13333 6.6 11.4 4.26667 11.4H1" stroke="#444444"
    stroke-width="1.2" stroke-linecap="round" stroke-linejoin="round" />
  <path
    d="M9.18213 10.0012C9.48174 10.4042 9.86475 10.7377 10.305 10.9791C10.7453 11.2205 11.2324 11.364 11.7332 11.4H14.9999"
    stroke="#444444" stroke-width="1.2" stroke-linecap="round" stroke-linejoin="round" />
  <path d="M13.1333 3L15 4.86667L13.1333 6.73333" stroke="#444444" stroke-width="1.2" stroke-linecap="round"
    stroke-linejoin="round" />
  <path d="M13.1333 9.53333L15 11.4L13.1333 13.2667" stroke="#444444" stroke-width="1.2" stroke-linecap="round"
    stroke-linejoin="round" />
</svg>