<svg width="36" height="36" viewBox="0 0 36 36" fill="none" xmlns="http://www.w3.org/2000/svg">
    <path d="M0 18C0 8.05887 8.05887 0 18 0V0C27.9411 0 36 8.05887 36 18V18C36 27.9411 27.9411 36 18 36V36C8.05887 36 0 27.9411 0 18V18Z" fill="white"/>
    <path fill-rule="evenodd" clip-rule="evenodd" d="M28.9986 19.4871C28.9986 21.1556 28.6285 22.7514 28.0363 24.2023C29.2206 22.4613 29.8868 20.3576 29.8868 18.1088C29.8868 11.8703 24.7054 6.79248 18.3396 6.79248C11.9739 6.79248 6.79248 11.8703 6.79248 18.1088C6.79248 20.2125 7.38464 22.1711 8.34691 23.8396C7.82876 22.5338 7.53268 21.083 7.53268 19.5597C7.53268 13.3211 12.344 8.2433 18.2656 8.2433C24.1873 8.09821 28.9986 13.1761 28.9986 19.4871ZM18.8578 14.6994L18.4877 13.974L18.1916 14.6994L11.4558 28.7723L11.2337 29.2076H13.5283L13.6023 28.99L18.4137 18.5441L23.225 28.99L23.299 29.2076H25.7417L25.5196 28.7723L18.8578 14.6994Z" fill="#1E1E1E"/>
</svg>